#!OML:ASF F:\VICON\USERDATA\INSTALL\rory3\rory3.ASF
:FULLY-SPECIFIED
:DEGREES
180
root 4.57895 17.5704 1.17806 15.9428 1.58746 -2.19823
lowerback -5.75943 0.220983 12.9382
upperback -9.87179 0.202789 0.843544
thorax -7.38041 -0.80657 -6.32183
lowerneck -6.25605 11.018 5.80861
upperneck 26.4566 13.1362 6.15186
head 9.35294 7.36865 2.44935
rclavicle -7.85199e-015 2.14687e-014
rhumerus 5.96398 -23.9149 12.4204
rradius 116.103
rwrist -65.2751
rhand -3.71175 -43.238
rfingers 7.12502
rthumb 22.0307 -72.0032
lclavicle -7.85199e-015 2.14687e-014
lhumerus 36.5469 32.9275 -6.16381
lradius 35.564
lwrist 33.7133
lhand -26.0718 -22.1744
lfingers 7.12502
lthumb 0.476432 7.8048
rfemur -11.0023 5.91342 -1.27815
rtibia 26.4237
rfoot 18.0462 -17.7932
rtoes -16.3678
lfemur -19.4848 1.7323 -28.2037
ltibia 18.7988
lfoot -14.1864 7.24757
ltoes 11.4325
181
root 4.57328 17.5696 1.17049 15.8639 1.50026 -2.36
lowerback -5.76202 0.261752 13.0533
upperback -9.84209 0.25501 0.884523
thorax -7.33903 -0.783131 -6.34197
lowerneck -5.84681 10.8602 5.73529
upperneck 26.4736 12.9922 6.00466
head 9.28792 7.27989 2.36892
rclavicle 4.37326e-015 -3.81667e-014
rhumerus 6.26207 -23.9496 11.9176
rradius 115.944
rwrist -64.9495
rhand -3.3059 -43.356
rfingers 7.12502
rthumb 22.4204 -72.0748
lclavicle 4.37326e-015 -3.81667e-014
lhumerus 36.5828 32.8809 -6.06357
lradius 35.7645
lwrist 33.8439
lhand -24.6013 -21.8992
lfingers 7.12502
lthumb 1.89659 8.0721
rfemur -11.153 6.01223 -1.07558
rtibia 26.6664
rfoot 16.9521 -18.8843
rtoes -13.4535
lfemur -19.5214 1.83345 -28.0247
ltibia 18.9219
lfoot -14.194 7.30703
ltoes 11.4081
182
root 4.56747 17.5681 1.15598 15.8353 1.56273 -2.50864
lowerback -5.67392 0.237177 13.1947
upperback -9.87329 0.240331 0.938991
thorax -7.43465 -0.805404 -6.36079
lowerneck -5.43202 10.7434 5.7575
upperneck 26.4902 12.9157 5.75949
head 9.23706 7.22131 2.25001
rclavicle -2.69353e-014 3.10104e-014
rhumerus 6.45168 -23.869 11.6176
rradius 115.867
rwrist -64.6963
rhand -2.87201 -43.2773
rfingers 7.12502
rthumb 22.8368 -71.9453
lclavicle -2.69353e-014 3.10104e-014
lhumerus 36.4088 32.6947 -6.25831
lradius 36.0177
lwrist 34.2718
lhand -24.6362 -21.7641
lfingers 7.12502
lthumb 1.8629 8.20752
rfemur -11.219 5.98813 -0.82878
rtibia 26.8414
rfoot 15.7146 -19.9055
rtoes -10.9682
lfemur -19.6379 1.91081 -27.8458
ltibia 19.1118
lfoot -14.2558 7.20733
ltoes 11.5047
183
root 4.56745 17.5663 1.14224 15.8171 1.64613 -2.4284
lowerback -5.54606 0.168103 13.1903
upperback -9.86697 0.167299 0.922463
thorax -7.517 -0.846997 -6.37544
lowerneck -5.62571 10.6662 5.73399
upperneck 26.9301 12.8123 5.67964
head 9.43323 7.16636 2.25445
rclavicle -8.15017e-015 -1.74931e-014
rhumerus 6.50577 -23.8332 11.4488
rradius 115.895
rwrist -64.882
rhand -2.44909 -43.3545
rfingers 7.12502
rthumb 23.2426 -71.9718
lclavicle -8.15017e-015 -1.74931e-014
lhumerus 36.2574 32.6859 -6.41658
lradius 36.2411
lwrist 34.6875
lhand -25.4074 -21.3731
lfingers 7.12502
lthumb 1.11807 8.60374
rfemur -11.2224 5.69761 -0.865608
rtibia 26.932
rfoot 15.962 -19.7319
rtoes -11.2682
lfemur -19.7604 1.86612 -27.9214
ltibia 19.3366
lfoot -14.3323 7.11708
ltoes 11.7109
184
root 4.56917 17.5616 1.13485 15.7761 1.65209 -2.2724
lowerback -5.59052 0.12211 13.1036
upperback -9.71353 0.0841797 0.878054
thorax -7.33124 -0.865669 -6.37678
lowerneck -6.26279 10.571 5.61664
upperneck 27.5536 12.6342 5.71699
head 9.76369 7.07959 2.34385
rclavicle 8.05078e-015 0
rhumerus 6.5135 -23.8363 11.2553
rradius 115.925
rwrist -64.944
rhand -2.50669 -43.4391
rfingers 7.12502
rthumb 23.1873 -72.0634
lclavicle 8.05078e-015 0
lhumerus 36.3189 32.9898 -6.28939
lradius 36.3152
lwrist 34.5942
lhand -26.1658 -21.1809
lfingers 7.12502
lthumb 0.38558 8.7985
rfemur -11.1558 5.42382 -1.03615
rtibia 26.9
rfoot 16.3468 -19.474
rtoes -11.6524
lfemur -19.8206 1.81373 -28.0983
ltibia 19.5486
lfoot -14.4141 7.10929
ltoes 11.8769
185
root 4.57607 17.5545 1.13766 15.4598 1.5371 -2.34165
lowerback -5.69315 0.141189 13.3277
upperback -9.34833 0.0589492 0.861731
thorax -6.8756 -0.849399 -6.52386
lowerneck -6.62742 10.4398 5.59289
upperneck 27.8121 12.4832 5.48035
head 9.94118 6.98052 2.29158
rclavicle 8.44835e-015 5.56597e-015
rhumerus 6.53729 -23.8867 10.9902
rradius 115.899
rwrist -64.6871
rhand -3.01872 -43.3889
rfingers 7.12502
rthumb 22.696 -72.0742
lclavicle 8.44835e-015 5.56597e-015
lhumerus 36.3481 33.3183 -6.18646
lradius 36.3889
lwrist 34.4808
lhand -26.3354 -21.6126
lfingers 7.12502
lthumb 0.221823 8.36701
rfemur -10.8164 5.38855 -0.983843
rtibia 26.8569
rfoot 16.1127 -19.4936
rtoes -11.5059
lfemur -19.5352 1.88706 -28.0653
ltibia 19.7124
lfoot -14.543 7.23741
ltoes 11.8302
186
root 4.58452 17.5483 1.15016 14.7524 0.934662 -2.57094
lowerback -5.34532 0.295531 13.6848
upperback -8.94366 0.281358 0.857322
thorax -6.58612 -0.72525 -6.73214
lowerneck -6.66966 10.2847 5.53884
upperneck 27.9681 12.3361 5.21992
head 10.0198 6.8783 2.20733
rclavicle -7.35503e-015 3.18055e-015
rhumerus 6.50937 -23.9466 10.8124
rradius 115.897
rwrist -64.6796
rhand -3.57002 -43.3611
rfingers 7.12502
rthumb 22.1668 -72.1102
lclavicle -7.35503e-015 3.18055e-015
lhumerus 36.2571 33.3823 -6.16891
lradius 36.6261
lwrist 34.6309
lhand -25.9739 -22.1478
lfingers 7.12502
lthumb 0.57091 7.83116
rfemur -10.3379 5.87527 -0.847615
rtibia 26.8561
rfoot 16.7543 -18.6072
rtoes -14.4054
lfemur -18.7838 2.17454 -27.9107
ltibia 19.8325
lfoot -14.74 7.72081
ltoes 11.7291
187
root 4.58032 17.5465 1.13587 14.5703 0.731989 -2.53993
lowerback -4.94587 0.316894 13.5889
upperback -8.95878 0.378216 0.868141
thorax -6.80678 -0.685304 -6.66778
lowerneck -6.69633 10.1579 5.39834
upperneck 28.3509 12.1829 5.20341
head 10.1546 6.79464 2.22802
rclavicle 8.24956e-015 -1.03368e-014
rhumerus 6.43014 -23.8684 10.7697
rradius 115.981
rwrist -64.9809
rhand -3.52738 -43.549
rfingers 7.12502
rthumb 22.2077 -72.2932
lclavicle 8.24956e-015 -1.03368e-014
lhumerus 36.1291 33.1251 -6.19888
lradius 36.9527
lwrist 34.8906
lhand -26.5785 -22.1621
lfingers 7.12502
lthumb -0.0129789 7.81769
rfemur -10.3682 5.95779 -0.87223
rtibia 26.9568
rfoot 17.4536 -17.852
rtoes -16.8674
lfemur -18.701 2.21091 -27.9459
ltibia 19.9333
lfoot -14.7707 7.8752
ltoes 11.5385
188
root 4.57603 17.5433 1.11922 14.5063 0.565666 -2.41314
lowerback -4.98921 0.343525 13.3701
upperback -8.83939 0.397535 0.866363
thorax -6.63443 -0.644719 -6.54911
lowerneck -6.63018 10.0758 5.29623
upperneck 28.4598 12.1088 5.1213
head 10.1791 6.7415 2.2083
rclavicle -1.35174e-014 2.38542e-015
rhumerus 6.41325 -24.0034 10.611
rradius 116.057
rwrist -65.0915
rhand -2.74913 -43.7225
rfingers 7.12502
rthumb 22.9547 -72.3759
lclavicle -1.35174e-014 2.38542e-015
lhumerus 36.1866 33.2055 -6.00882
lradius 37.0983
lwrist 34.7474
lhand -27.6068 -21.6231
lfingers 7.12502
lthumb -1.00617 8.35428
rfemur -10.5869 5.8592 -1.01387
rtibia 27.2397
rfoot 17.4077 -17.7914
rtoes -16.4727
lfemur -18.7635 2.26904 -28.0944
ltibia 20.0404
lfoot -14.7668 7.92128
ltoes 11.4868
189
root 4.56821 17.5427 1.10263 14.4841 0.387486 -2.3694
lowerback -4.90003 0.371303 13.1908
upperback -8.8375 0.450485 0.883301
thorax -6.66493 -0.607888 -6.43159
lowerneck -6.52688 9.9462 5.20922
upperneck 28.6293 11.9663 5.04387
head 10.2201 6.65951 2.18142
rclavicle 8.64713e-015 -1.35174e-014
rhumerus 6.47474 -23.9498 10.3574
rradius 116.088
rwrist -64.9506
rhand -2.3993 -43.6433
rfingers 7.12502
rthumb 23.2904 -72.2546
lclavicle 8.64713e-015 -1.35174e-014
lhumerus 36.4374 33.2327 -5.64002
lradius 37.0951
lwrist 34.3531
lhand -27.4666 -21.5553
lfingers 7.12502
lthumb -0.870722 8.42267
rfemur -10.947 5.94518 -1.04256
rtibia 27.6018
rfoot 17.2403 -18.0279
rtoes -16.1568
lfemur -18.9065 2.30217 -28.1306
ltibia 20.1753
lfoot -14.7154 8.05632
ltoes 11.6629
190
root 4.55534 17.546 1.06719 15.0761 0.98258 -2.29077
lowerback -5.18851 0.205243 13.0061
upperback -9.08145 0.207743 0.922383
thorax -6.81738 -0.735104 -6.28218
lowerneck -6.72718 9.7777 5.23044
upperneck 29.0347 11.7424 4.91956
head 10.4194 6.54508 2.14613
rclavicle 8.34896e-015 1.27222e-014
rhumerus 6.59596 -23.7401 9.98589
rradius 116.024
rwrist -64.5653
rhand -2.92834 -43.4299
rfingers 7.12502
rthumb 22.7827 -72.1046
lclavicle 8.34896e-015 1.27222e-014
lhumerus 36.6213 33.2222 -5.46253
lradius 37.1005
lwrist 34.2372
lhand -26.5137 -22.1959
lfingers 7.12502
lthumb 0.0496094 7.78381
rfemur -11.6026 5.42465 -0.925228
rtibia 27.8498
rfoot 17.1549 -18.5938
rtoes -16.1284
lfemur -19.7888 1.95893 -28.1006
ltibia 20.3171
lfoot -14.5206 7.73513
ltoes 11.6951
191
root 4.56061 17.5453 1.06076 15.0691 1.05616 -2.43974
lowerback -5.33301 0.214829 13.2805
upperback -9.00136 0.189043 0.939675
thorax -6.66025 -0.748468 -6.41692
lowerneck -6.99571 9.61934 5.15666
upperneck 29.4562 11.5437 4.80411
head 10.6309 6.43292 2.13469
rclavicle 1.63997e-014 -2.54444e-014
rhumerus 6.65886 -23.4636 9.68772
rradius 115.953
rwrist -64.1306
rhand -3.47525 -43.0545
rfingers 7.12502
rthumb 22.2578 -71.7928
lclavicle 1.63997e-014 -2.54444e-014
lhumerus 36.6786 33.3192 -5.34731
lradius 37.2102
lwrist 34.3806
lhand -25.7513 -22.5187
lfingers 7.12502
lthumb 0.785915 7.45955
rfemur -11.6897 5.20064 -0.725416
rtibia 28.0036
rfoot 16.967 -18.926
rtoes -15.3772
lfemur -19.8658 2.00774 -27.9647
ltibia 20.4578
lfoot -14.608 7.66229
ltoes 11.6628
192
root 4.57645 17.5411 1.07836 14.453 0.392465 -2.66331
lowerback -5.03424 0.407261 13.6835
upperback -8.772 0.469262 0.932514
thorax -6.52914 -0.616848 -6.65251
lowerneck -6.90246 9.49328 4.90576
upperneck 29.8148 11.4009 4.85608
head 10.7244 6.3494 2.18664
rclavicle 1.88845e-015 -2.54444e-014
rhumerus 6.66996 -23.1514 9.52062
rradius 115.953
rwrist -63.9755
rhand -3.47315 -42.7659
rfingers 7.12502
rthumb 22.2598 -71.5039
lclavicle 1.88845e-015 -2.54444e-014
lhumerus 36.5259 33.2013 -5.3717
lradius 37.5161
lwrist 34.8987
lhand -25.3047 -22.4255
lfingers 7.12502
lthumb 1.21731 7.55082
rfemur -11.3369 5.52024 -0.635521
rtibia 28.0948
rfoot 17.1014 -18.4916
rtoes -15.8558
lfemur -19.156 2.3836 -27.8642
ltibia 20.58
lfoot -14.8617 8.08444
ltoes 11.764
